<?xml version="1.0" standalone="no"?>
<!DOCTYPE svg PUBLIC "-//W3C//DTD SVG 20010904//EN"
 "http://www.w3.org/TR/2001/REC-SVG-20010904/DTD/svg10.dtd">
<svg version="1.0" xmlns="http://www.w3.org/2000/svg"
 width="500.000000pt" height="500.000000pt" viewBox="0 0 1200.000000 1200.000000"
 preserveAspectRatio="xMidYMid meet">

  <circle cx="600" cy="600" r="600" fill="#ffffff" />

  <!-- aumenta o P -->
  <g transform="translate(600 600) scale(2) translate(-630 -430)">
    <g transform="translate(0.000000,1254.000000) scale(0.100000,-0.100000)"
    fill="#0d3b2a" stroke="none">
      <path d="M5364 10068 c-136 -145 -314 -333 -395 -418 -80 -85 -151 -165 -157
      -176 -8 -16 -12 -438 -12 -1538 l0 -1516 495 0 495 0 0 370 c0 363 0 370 19
      360 13 -6 200 -10 538 -10 509 0 520 0 541 20 18 17 22 32 22 80 l0 60 -560 0
      -560 0 -2 937 c-2 742 -6 937 -16 941 -7 2 -40 -23 -75 -57 l-62 -60 -5 -1238
      -5 -1238 -322 -3 -321 -2 -6 102 c-10 151 -2 2645 7 2655 5 4 448 8 985 7 921
      0 980 -1 1032 -19 282 -94 404 -424 255 -691 -38 -67 -125 -153 -186 -185 -92
      -46 -125 -49 -617 -49 l-464 0 -29 -29 c-16 -16 -29 -40 -30 -53 0 -13 -1
      -212 0 -443 l0 -420 22 -18 c22 -18 52 -18 584 -14 351 3 581 9 616 16 358 70
      671 271 881 561 68 95 163 284 202 403 51 154 70 286 70 472 0 194 -15 291
      -69 461 -69 220 -180 399 -355 575 -207 208 -427 328 -720 392 -90 19 -133 20
      -821 24 l-726 4 -249 -263z m1786 65 c287 -71 511 -208 690 -422 135 -161 211
      -315 268 -539 24 -97 27 -124 27 -292 0 -197 -6 -237 -56 -405 -117 -387 -425
      -706 -801 -829 -156 -51 -225 -56 -725 -56 l-463 0 0 319 0 320 453 3 452 3
      66 26 c101 39 157 76 235 153 122 122 184 278 184 461 0 125 -20 209 -70 303
      -51 94 -87 138 -163 200 -74 59 -118 82 -211 111 -67 21 -80 21 -1007 21 -516
      0 -939 3 -939 6 0 11 48 64 323 357 l270 288 691 -4 c660 -3 695 -4 776 -24z"/>
      <path d="M5985 9220 c-11 -4 -29 -18 -40 -30 -19 -21 -20 -38 -23 -301 -3
      -269 -2 -279 18 -299 26 -26 69 -25 111 3 l34 23 3 227 2 228 388 -3 387 -3
      47 -28 c63 -36 98 -96 98 -165 0 -47 -4 -54 -50 -105 -28 -30 -57 -74 -65 -97
      -8 -23 -24 -54 -35 -70 -11 -15 -20 -31 -20 -34 0 -14 88 -4 128 14 99 45 159
      119 188 230 38 148 -44 308 -194 382 l-67 33 -445 1 c-245 1 -454 -2 -465 -6z"/>
    </g>
  </g>
</svg>